<?xml version="1.0" standalone="no"?>
<!DOCTYPE svg PUBLIC "-//W3C//DTD SVG 20010904//EN"
 "http://www.w3.org/TR/2001/REC-SVG-20010904/DTD/svg10.dtd">
<svg version="1.0" xmlns="http://www.w3.org/2000/svg"
 width="1000.000000pt" height="1000.000000pt" viewBox="0 0 1000.000000 1000.000000"
 preserveAspectRatio="xMidYMid meet">
<metadata>
Created by potrace 1.11, written by Peter Selinger 2001-2013
</metadata>
<g transform="translate(0.000000,1000.000000) scale(0.100000,-0.100000)"
fill="#000000" stroke="none">
<path d="M1869 9996 c-2 -2 -33 -7 -68 -10 -36 -4 -67 -8 -70 -10 -3 -2 -28
-7 -56 -10 -27 -4 -77 -14 -110 -22 -33 -9 -67 -17 -75 -19 -8 -2 -51 -16 -95
-31 -378 -128 -716 -368 -965 -684 -196 -250 -364 -635 -404 -925 -3 -22 -10
-69 -15 -105 -13 -86 -13 -6260 0 -6355 16 -129 20 -150 41 -240 52 -226 160
-475 294 -676 41 -63 81 -118 87 -124 7 -5 30 -32 52 -60 143 -177 373 -364
601 -486 92 -50 279 -129 303 -129 9 0 21 -4 26 -9 10 -9 190 -57 251 -67 16
-2 38 -6 49 -9 11 -2 49 -8 85 -12 36 -4 1483 -8 3215 -8 3014 0 3154 1 3254
18 135 24 129 23 181 37 25 7 52 14 60 15 42 9 228 79 311 118 148 68 335 188
458 293 41 35 184 177 226 225 120 136 258 358 330 529 71 168 131 388 152
560 4 36 8 1485 8 3220 l0 3155 -27 140 c-15 77 -38 176 -51 220 -126 417
-382 788 -718 1041 -35 26 -66 51 -69 54 -13 17 -198 123 -284 165 -169 81
-314 130 -489 164 -56 11 -118 24 -137 28 -35 7 -6343 17 -6351 9z"/>
</g>
</svg>
