<svg xmlns="http://www.w3.org/2000/svg" width="128" height="128" fill="none"><g clip-path="url(#A)"><path d="M110.75 0h-93.5C7.723 0 0 7.723 0 17.25v93.5C0 120.277 7.723 128 17.25 128h46.113l.078-45.742H51.56c-1.543 0-2.797-1.246-2.805-2.793L48.7 64.723c-.008-1.555 1.25-2.816 2.805-2.816h11.86V47.66c0-16.53 10.098-25.535 24.848-25.535h12.102a2.81 2.81 0 0 1 2.805 2.805v12.434a2.81 2.81 0 0 1-2.805 2.805l-7.426.004c-8.02 0-9.574 3.8-9.574 9.402v12.332h17.625a2.81 2.81 0 0 1 2.095.944c.263.296.46.645.58 1.023s.156.777.1 1.17l-1.75 14.742a2.81 2.81 0 0 1-2.785 2.477H83.4L83.313 128h27.438c9.527 0 17.25-7.723 17.25-17.246V17.25C128 7.723 120.277 0 110.75 0z" fill="#b1baba"/></g><defs><clipPath id="A"><path fill="#fff" d="M0 0h128v128H0z"/></clipPath></defs></svg>