<svg xmlns="http://www.w3.org/2000/svg" width="128" height="128" fill="none"><g clip-path="url(#A)"><path d="M64 1.324C28.648 1.324 0 30.1 0 65.6a64.25 64.25 0 0 0 12.057 37.543c7.855 10.94 18.95 19.137 31.716 23.43 3.203.602 4.375-1.398 4.375-3.098l-.098-10.926c-17.8 3.848-21.55-8.625-21.55-8.625-2.898-7.426-7.102-9.402-7.102-9.402-5.824-3.973.426-3.898.426-3.898 6.426.45 9.8 6.625 9.8 6.625 5.7 9.824 14.977 6.977 18.625 5.324.574-4.148 2.227-6.973 4.074-8.598-14.2-1.625-29.148-7.125-29.148-31.75 0-7.027 2.5-12.75 6.598-17.25-.672-1.625-2.848-8.152.625-17 0 0 5.375-1.727 17.602 6.574 5.102-1.426 10.574-2.125 16.023-2.152 5.426.027 10.902.727 16.027 2.176C92.25 26.25 97.625 28 97.625 28c3.5 8.852 1.3 15.375.648 17 4.102 4.5 6.578 10.227 6.578 17.25 0 24.676-14.953 30.102-29.227 31.7 2.3 1.977 4.352 5.902 4.352 11.902l-.078 17.625c0 1.723 1.152 3.723 4.402 3.098 25.375-8.55 43.7-32.598 43.7-60.973 0-35.5-28.648-64.277-64-64.277v-.001z" fill="#b1baba"/></g><defs><clipPath id="A"><path fill="#fff" d="M0 0h128v128H0z"/></clipPath></defs></svg>