<?xml version="1.0" encoding="utf-8"?>
<!-- Generator: Adobe Illustrator 19.0.0, SVG Export Plug-In . SVG Version: 6.00 Build 0)  -->
<svg version="1.1" id="Layer_1" xmlns="http://www.w3.org/2000/svg" xmlns:xlink="http://www.w3.org/1999/xlink" x="0px" y="0px"
	 viewBox="-110 112.2 289.8 289.8" style="enable-background:new -110 112.2 289.8 289.8;" xml:space="preserve">
<style type="text/css">
	.st0{fill:#B1BABA;}
</style>
<g>
	<path class="st0" d="M-96.6,125.9c-0.7,2.4-1.2,5.1-1.2,8v246.4c0,3,0.5,5.5,1.1,7.9l138.3-131C41.7,257.3-96.6,125.9-96.6,125.9z"
		/>
	<path class="st0" d="M95.6,206.1l-161.4-89.8c-6.4-3.9-12.8-4.9-18.1-3.5L54.9,244.7L95.6,206.1z"/>
	<path class="st0" d="M155.1,239.2l-43.1-24l-44.1,41.8l45,42.7l41.9-23C175.3,265.1,167.8,246.4,155.1,239.2z"/>
	<path class="st0" d="M-84.3,401.3c5.4,1.5,11.9,0.6,18.5-3.4L96.1,309l-41.4-39.4C54.7,269.6-84.3,401.3-84.3,401.3z"/>
</g>
</svg>
