<svg xmlns="http://www.w3.org/2000/svg" width="128" height="128" fill="none"><g clip-path="url(#A)"><path d="M5.918 6.05c-.3 1.06-.53 2.254-.53 3.535v108.828c0 1.328.223 2.43.488 3.492L66.96 64.043C67.004 64.1 5.918 6.05 5.918 6.05zM90.8 41.473L19.523 1.813C16.695.1 13.867-.352 11.527.266l61.305 58.258L90.8 41.473zm26.3 14.62l-19.045-10.6-19.48 18.465 19.88 18.86 18.504-10.16c9.055-5.12 5.742-13.383.133-16.562l.008-.002zM11.352 127.7c2.387.66 5.254.266 8.172-1.504L91.03 86.922 72.746 69.52 11.352 127.7z" fill="#b1baba"/></g><defs><clipPath id="A"><path fill="#fff" d="M0 0h128v128H0z"/></clipPath></defs></svg>