<?xml version="1.0" encoding="utf-8"?>
<!-- Generator: Adobe Illustrator 19.0.0, SVG Export Plug-In . SVG Version: 6.00 Build 0)  -->
<svg version="1.1" id="Layer_1" xmlns="http://www.w3.org/2000/svg" xmlns:xlink="http://www.w3.org/1999/xlink" x="0px" y="0px"
	 viewBox="0 0 512 512" style="enable-background:new 0 0 512 512;" xml:space="preserve">
<style type="text/css">
	.st0{fill:#B1BABA;}
</style>
<g>
	<path class="st0" d="M341,338.5l-6.5,0c-0.5,0-0.9-0.4-0.9-0.9V166.8c0-3.1-2.5-5.6-5.6-5.6h-34.5c-3.1,0-5.6,2.5-5.6,5.6v64
		c0,0.5-0.4,0.9-0.9,0.9h-62.9c-0.5,0-0.9-0.4-0.9-0.9v-57.3c0-0.5,0.4-0.9,0.9-0.9h7.3c1.6,0,3.1-0.7,4.1-2.2
		c1.3-2.2,0.7-5-1.5-6.3l-28.4-27.5c-0.9-1.3-2.5-1.9-4.1-1.9s-2.8,0.6-3.7,1.9L167.4,164c-1.3,0.9-2.2,2.5-2.2,4.1
		c0,2.5,2.2,4.7,4.7,4.7h7.5c0.5,0,0.9,0.4,0.9,0.9v170.8c0,3.1,2.5,5.6,5.6,5.6h34.5c3.1,0,5.6-2.5,5.6-5.6v-66.1
		c0-0.5,0.4-0.9,0.9-0.9h62.9c0.5,0,0.9,0.4,0.9,0.9v59.9c0,0.5-0.4,0.9-0.9,0.9h-7.3c-1.6,0-3.1,0.7-4.1,2.2
		c-1.3,2.2-0.7,5,1.5,6.3l28.4,27.5c0.9,1.3,2.5,1.9,4.1,1.9c1.5,0,2.8-0.6,3.7-1.9l30.2-27.4c0.1-0.1,0.2-0.1,0.2-0.1
		c0.9-0.4,1.5-1.1,1.8-2.2C347.5,341.7,344.9,338.5,341,338.5z"/>
	<path class="st0" d="M0,66v380c0,36.5,29.5,66,66,66h380c36.5,0,66-29.5,66-66V66c0-36.5-29.5-66-66-66H66C29.5,0,0,29.5,0,66z
		 M450.9,323.6c-1.3,20.3-3.5,35.6-6.9,41.3c-3.4,5.7-15.6,15.4-32.5,26.9c-21.9,14.7-51,32.5-78.6,47.6
		c-34.7,19-66.6,34.1-76.9,34.1c-24.7,0-175.4-87.3-188-108.6c-5-8.7-7.8-43.7-8.7-83.5c-0.6-31.3,0-65.4,1.9-91.6
		c1.3-21,3.7-36.6,6.9-42.2s15.3-15.3,31.6-26.6c21.2-14.4,49.8-31.6,76.9-46.6c35.7-20,69.1-35.7,79.5-35.7
		c8.4,0,31.9,10.4,59.8,24.9l73.8,42.9c27.5,17.6,49.7,33.5,54.1,41c5.3,9.1,8.5,45.7,9.1,86.4C453.4,264.4,452.8,298,450.9,323.6z"
		/>
</g>
</svg>
