<svg xmlns="http://www.w3.org/2000/svg" width="128" height="128" fill="none"><path d="M85.25 84.625h-1.625c-.125 0-.227-.102-.227-.227V41.7c0-.773-.625-1.398-1.398-1.398h-8.625c-.773 0-1.398.625-1.398 1.398v16c0 .125-.102.227-.227.227H56.023c-.125 0-.223-.102-.223-.227V43.375c0-.125.098-.227.223-.227h1.828c.398 0 .773-.172 1.023-.547.324-.55.176-1.25-.375-1.578l-7.102-6.875c-.223-.324-.625-.473-1.023-.473s-.7.148-.926.473L41.852 41c-.328.227-.55.625-.55 1.023a1.21 1.21 0 0 0 1.176 1.176h1.875c.125 0 .223.102.223.227v42.7a1.4 1.4 0 0 0 .411.989 1.4 1.4 0 0 0 .991.409h8.625c.773 0 1.398-.625 1.398-1.398V69.602c0-.125.102-.227.227-.227H71.95c.125 0 .227.102.227.227v14.973c0 .125-.102.227-.227.227h-1.824a1.2 1.2 0 0 0-1.023.55c-.328.547-.176 1.25.375 1.574l7.098 6.875c.227.324.625.473 1.027.473.375 0 .7-.148.922-.473l7.55-6.852c.027-.023.05-.023.05-.023.227-.102.375-.277.45-.55.3-.95-.348-1.75-1.324-1.75v-.001zM0 16.5v95c0 9.125 7.375 16.5 16.5 16.5h95c9.125 0 16.5-7.375 16.5-16.5v-95C128 7.375 120.625 0 111.5 0h-95C7.375 0 0 7.375 0 16.5zm112.727 64.398c-.328 5.078-.875 8.902-1.727 10.328s-3.898 3.848-8.125 6.723c-5.477 3.676-12.75 8.125-19.648 11.902-8.676 4.75-16.652 8.523-19.227 8.523-6.176 0-43.852-21.824-47-27.148-1.25-2.176-1.95-10.926-2.176-20.875-.148-7.828 0-16.352.477-22.902.324-5.25.926-9.148 1.723-10.55s3.828-3.824 7.902-6.648c5.3-3.602 12.45-7.898 19.223-11.648 8.926-5 17.277-8.926 19.875-8.926 2.102 0 7.977 2.598 14.953 6.223l18.45 10.727c6.875 4.398 12.426 8.375 13.523 10.25 1.324 2.273 2.125 11.426 2.277 21.602.125 7.625-.027 16.023-.5 22.422v-.003z" fill="#b1baba"/></svg>