<svg xmlns="http://www.w3.org/2000/svg" width="128" height="128" fill="#b1baba"><path d="M88 0H40C17.9 0 0 17.9 0 40v48c0 22.1 17.9 40 40 40h48c22.1 0 40-17.9 40-40V40c0-22.1-17.9-40-40-40zm28 88c0 15.44-12.56 28-28 28H40c-15.44 0-28-12.56-28-28V40c0-15.44 12.56-28 28-28h48c15.44 0 28 12.56 28 28v48zM64 32c-17.672 0-32 14.328-32 32s14.328 32 32 32 32-14.328 32-32-14.328-32-32-32zm0 52c-11.023 0-20-8.977-20-20 0-11.03 8.977-20 20-20s20 8.97 20 20c0 11.023-8.977 20-20 20zm38.664-54.398a4.26 4.26 0 0 1-4.266 4.262 4.25 4.25 0 0 1-4.262-4.262c0-2.362 1.9-4.266 4.262-4.266s4.266 1.9 4.266 4.266h0z"/></svg>