<svg xmlns="http://www.w3.org/2000/svg" width="128" height="128" fill="none"><path d="M101.332 0H26.668C11.94 0 0 11.94 0 26.668v74.664C0 116.06 11.94 128 26.668 128h74.664c14.73 0 26.668-11.94 26.668-26.668V26.668C128 11.94 116.063 0 101.332 0zM42.668 101.332h-16V42.668h16v58.664zm-8-65.43c-5.152 0-9.336-4.2-9.336-9.406s4.184-9.406 9.336-9.406S44 21.3 44 26.496s-4.176 9.406-9.332 9.406h0zm72 65.43h-16V71.445c0-17.96-21.336-16.602-21.336 0v29.887h-16V42.668h16v9.4c7.445-13.8 37.336-14.8 37.336 13.207v36.057z" fill="#b1baba"/></svg>