<?xml version="1.0" encoding="iso-8859-1"?>
<!-- Generator: Adobe Illustrator 19.0.0, SVG Export Plug-In . SVG Version: 6.00 Build 0)  -->
<svg version="1.1" xmlns="http://www.w3.org/2000/svg" xmlns:xlink="http://www.w3.org/1999/xlink" x="0px" y="0px"
	 viewBox="0 0 407.455 353" style="enable-background:new 0 0 407.455 353;" xml:space="preserve">
<g id="Layer_3">
	<path id="XMLID_1_" style="display:none;fill:#231F20;" d="M795,1000H205C91.782,1000,0,908.218,0,795V205C0,91.782,91.782,0,205,0
		h590c113.218,0,205,91.782,205,205v590C1000,908.218,908.218,1000,795,1000z"/>
	<rect id="XMLID_2_" style="display:none;fill:#231F20;" width="1000" height="1000"/>
	<g id="XMLID_5_">
		<polyline id="XMLID_7_" style="opacity:0.77;fill:#FFFFFF;" points="204.227,353 407.455,353 204.227,1 		"/>
		<polyline id="XMLID_6_" style="opacity:0.77;fill:#FFFFFF;" points="204.227,1 407.455,1 204.227,353 		"/>
		<g id="XMLID_8_">
			<path id="XMLID_19_" style="fill:#F3F3F3;" d="M379.742,17L204.227,321L28.713,17H379.742 M407.455,1H1l203.227,352L407.455,1
				L407.455,1z"/>
		</g>
	</g>
</g>
<g id="Layer_2">
	<g id="XMLID_24_">
	</g>
	<g id="XMLID_25_">
	</g>
	<g id="XMLID_26_">
	</g>
	<g id="XMLID_27_">
	</g>
	<g id="XMLID_28_">
	</g>
	<g id="XMLID_29_">
	</g>
	<g id="XMLID_30_">
	</g>
	<g id="XMLID_31_">
	</g>
	<g id="XMLID_32_">
	</g>
	<g id="XMLID_33_">
	</g>
	<g id="XMLID_34_">
	</g>
</g>
</svg>
