<svg width="448" height="448" xmlns="http://www.w3.org/2000/svg" class="svg-inline--fa fa-medium fa-w-14">

 <g>
  <title>background</title>
  <rect fill="none" id="canvas_background" height="450" width="450" y="-1" x="-1"/>
 </g>
 <g>
  <title>Layer 1</title>
  <path id="svg_1" d="m0,0l0,448l448,0l0,-448l-448,0zm372.2,106.1l-24,23c-2.1,1.6 -3.1,4.2 -2.7,6.7l0,169.3c-0.4,2.6 0.6,5.2 2.7,6.7l23.5,23l0,5.1l-118,0l0,-4.9l24.3,-23.6c2.4,-2.4 2.4,-3.1 2.4,-6.7l0,-136.9l-67.6,171.6l-9.1,0l-78.7,-171.6l0,115c-0.7,4.8 1,9.7 4.4,13.2l31.6,38.3l0,5.1l-89.8,0l0,-5.1l31.6,-38.3c3.4,-3.5 4.9,-8.4 4.1,-13.2l0,-133c0.4,-3.7 -1,-7.3 -3.8,-9.8l-28.1,-33.9l0,-5.1l87.3,0l67.4,148l59.3,-147.9l83.2,0l0,5z" fill="#b1baba"/>
 </g>
</svg>