<svg xmlns="http://www.w3.org/2000/svg" width="128" height="128" fill="none"><path d="M0 0v128h128V0H0zm106.344 30.313l-6.86 6.574a2.02 2.02 0 0 0-.77 1.914v48.37c-.113.742.172 1.484.77 1.914l6.715 6.57v1.457H72.484v-1.398l6.945-6.742c.684-.687.684-.887.684-1.914V47.94L60.8 96.973h-2.6L35.715 47.94V80.8c-.2 1.37.285 2.77 1.258 3.77L46 95.516v1.457H20.344v-1.457L29.37 84.57c.973-1 1.398-2.398 1.172-3.77v-38a3.26 3.26 0 0 0-1.086-2.8l-8.027-9.687v-1.457h24.94l19.258 42.3 16.94-42.258h23.773l.004 1.425z" fill="#b1baba"/></svg>